HIERARCHY
ROOT Hips
{
	OFFSET -3.958830 18.904000 13.208200
	CHANNELS 6 Xposition Yposition Zposition Zrotation Yrotation Xrotation 
	JOINT LHipJoint
	{
		OFFSET 0.000000 0.000000 0.000000
		CHANNELS 3 Zrotation Yrotation Xrotation
		JOINT LeftUpLeg
		{
			OFFSET 1.800000 -1.400000 0.085000
			CHANNELS 3 Zrotation Yrotation Xrotation
			JOINT LeftLeg
			{
				OFFSET 2.215000 -6.000000 0.000000
				CHANNELS 3 Zrotation Yrotation Xrotation
				JOINT LeftFoot
				{
					OFFSET 2.500000 -6.900000 0.000000
					CHANNELS 3 Zrotation Yrotation Xrotation
					JOINT LeftToeBase
					{
						OFFSET 0.200000 -0.500000 1.950000
						CHANNELS 3 Zrotation Yrotation Xrotation
						End Site
						{
							OFFSET 0.000000 0.000000 0.000000
						}
					}
				}
			}
		}
	}
	JOINT RHipJoint
	{
		OFFSET 0.000000 0.000000 0.000000
		CHANNELS 3 Zrotation Yrotation Xrotation
		JOINT RightUpLeg
		{
			OFFSET -1.800000 -1.400000 0.085000
			CHANNELS 3 Zrotation Yrotation Xrotation
			JOINT RightLeg
			{
				OFFSET -2.215000 -6.000000 0.000000
				CHANNELS 3 Zrotation Yrotation Xrotation
				JOINT RightFoot
				{
					OFFSET -2.500000 -6.900000 0.000000
					CHANNELS 3 Zrotation Yrotation Xrotation
					JOINT RightToeBase
					{
						OFFSET -0.200000 -0.500000 1.950000
						CHANNELS 3 Zrotation Yrotation Xrotation
						End Site
						{
							OFFSET 0.000000 0.000000 0.000000
						}
					}
				}
			}
		}
	}
	JOINT LowerBack
	{
		OFFSET 0.000000 0.000000 0.000000
		CHANNELS 3 Zrotation Yrotation Xrotation
		JOINT Spine
		{
			OFFSET -0.087000 1.940000 -0.288900
			CHANNELS 3 Zrotation Yrotation Xrotation
			JOINT Spine1
			{
				OFFSET 0.000000 1.950000 0.060000
				CHANNELS 3 Zrotation Yrotation Xrotation
				JOINT Neck
				{
					OFFSET 0.000000 0.000000 0.000000
					CHANNELS 3 Zrotation Yrotation Xrotation
					JOINT Neck1
					{
						OFFSET 0.000000 1.600000 0.340000
						CHANNELS 3 Zrotation Yrotation Xrotation
						JOINT Head
						{
							OFFSET 0.000000 1.667000 -0.240000
							CHANNELS 3 Zrotation Yrotation Xrotation
							End Site
							{
								OFFSET 0.000000 0.000000 0.000000
							}
						}
					}
				}
				JOINT LeftShoulder
				{
					OFFSET 0.000000 0.000000 0.000000
					CHANNELS 3 Zrotation Yrotation Xrotation
					JOINT LeftArm
					{
						OFFSET 2.700000 1.550000 -0.730000
						CHANNELS 3 Zrotation Yrotation Xrotation
						JOINT LeftForeArm
						{
							OFFSET 5.450000 0.000000 0.000000
							CHANNELS 3 Zrotation Yrotation Xrotation
							JOINT LeftHand
							{
								OFFSET 3.450000 0.000000 0.000000
								CHANNELS 3 Zrotation Yrotation Xrotation
								JOINT LeftHandIndex1
								{
									OFFSET 0.750000 0.000000 0.000000
									CHANNELS 3 Zrotation Yrotation Xrotation
									End Site
									{
										OFFSET 0.000000 0.000000 0.000000
									}
								}
							}
						}
					}
				}
				JOINT RightShoulder
				{
					OFFSET 0.000000 0.000000 0.000000
					CHANNELS 3 Zrotation Yrotation Xrotation
					JOINT RightArm
					{
						OFFSET -2.700000 1.550000 -0.730000
						CHANNELS 3 Zrotation Yrotation Xrotation
						JOINT RightForeArm
						{
							OFFSET -5.450000 0.000000 0.000000
							CHANNELS 3 Zrotation Yrotation Xrotation
							JOINT RightHand
							{
								OFFSET -3.450000 0.000000 0.000000
								CHANNELS 3 Zrotation Yrotation Xrotation
								JOINT RightHandIndex1
								{
									OFFSET -0.750000 0.000000 0.000000
									CHANNELS 3 Zrotation Yrotation Xrotation
									End Site
									{
										OFFSET 0.000000 0.000000 0.000000
									}
								}
							}
						}
					}
				}
			}
		}
	}
}
MOTION
Frames: 4
Frame Time: 0.016667
0.449280 17.366780 -1.869220 -2.586431 -4.931690 3.423446 -15.253558 13.942513 3.248310 0.267936 -1.859821 -13.308317 -8.332965 6.640826 17.581284 -0.932375 5.401247 3.197154 -0.288240 -0.870480 -0.396760 18.019625 -10.656800 2.809455 -5.638484 2.003967 -12.841730 12.531873 -7.686630 17.575062 -0.319922 -4.302326 3.057450 -0.289310 1.249760 0.505220 -2.999784 -3.247793 -7.715582 6.027317 0.006767 12.514279 -0.048035 1.076020 -0.642131 1.717178 -5.966787 -13.032384 -12.462929 7.354267 28.821842 -2.413210 3.317800 -8.444650 -13.273176 -11.128678 4.847005 16.103133 6.381893 1.611365 9.815964 -0.111018 -1.477024 -4.511831 2.189657 1.007750 0.555330 -0.236470 0.386960 11.174881 16.140610 9.350877 -10.815828 -1.658387 -3.655734 -18.773779 9.927488 -0.519195 1.885563 -0.949115 -0.820740 0.750900 0.596810 -0.107990 
0.446680 17.351990 -1.870660 -2.481455 -4.941841 3.208624 -15.257236 13.929703 3.259035 0.569245 -2.042402 -13.833619 -8.819051 7.052086 18.997223 -0.909527 5.607319 3.116226 -0.283120 -0.864640 -0.390010 18.013235 -10.644729 2.799773 -6.113241 2.180686 -13.246400 13.026711 -8.035755 18.696770 -0.342621 -4.442865 2.999525 -0.282280 1.252240 0.506530 -2.985812 -3.254952 -7.718659 5.776817 0.035187 12.840753 -0.037652 1.106844 -0.631611 1.686922 -5.909881 -12.919486 -12.268253 7.345196 28.491740 -2.540320 3.403050 -8.869270 -13.581042 -11.203559 4.776688 16.093461 5.875771 1.532261 9.974979 0.320003 -1.492036 -4.522646 2.178494 1.012310 0.557300 -0.234630 0.388080 11.537627 16.159351 9.285183 -10.477392 -1.387125 -3.798414 -19.307005 9.821205 -0.587995 1.881513 -0.954578 -0.825860 0.758410 0.595690 -0.110600 
0.443990 17.336610 -1.871330 -2.425529 -4.965476 3.047946 -15.257866 13.907065 3.271517 0.898656 -2.233471 -14.402893 -9.279345 7.470475 20.393343 -0.880759 5.821124 3.031319 -0.281300 -0.860520 -0.390720 18.012097 -10.627006 2.795797 -6.535719 2.367400 -13.670434 13.528871 -8.390440 19.774111 -0.364047 -4.590359 2.942270 -0.276940 1.257340 0.508770 -2.984133 -3.253211 -7.725534 5.654820 0.041961 13.093018 -0.087998 1.129612 -0.618734 1.659599 -5.884827 -12.826966 -12.141879 7.380755 28.177557 -2.595800 3.472830 -9.088450 -13.914511 -11.289963 4.733490 15.974957 5.505515 1.454840 10.345445 0.573512 -1.493038 -4.534129 2.174582 1.011470 0.562530 -0.236000 0.389580 11.914718 16.209360 9.224088 -10.180140 -1.117704 -3.936061 -19.813226 9.732725 -0.654357 1.877231 -0.961992 -0.828140 0.762790 0.596850 -0.110550 
0.440030 17.319070 -1.870840 -2.373935 -5.004318 2.931710 -15.260140 13.871247 3.287130 1.294345 -2.415964 -14.955401 -9.857140 7.921942 21.645773 -0.848623 6.044537 2.941283 -0.275480 -0.850550 -0.388140 18.013567 -10.602544 2.789211 -6.908270 2.552229 -14.099918 13.955877 -8.726122 20.825573 -0.384914 -4.735200 2.885750 -0.267650 1.258480 0.507960 -2.984075 -3.243395 -7.727751 5.511841 0.052097 13.229433 -0.111333 1.136158 -0.495399 1.610713 -5.876780 -12.718427 -12.032677 7.436364 27.788748 -2.614610 3.548400 -9.345970 -14.151581 -11.356416 4.694868 15.871036 5.100145 1.382630 10.529656 0.917683 -1.498011 -4.543626 2.172664 1.008090 0.566040 -0.238180 0.389950 12.236247 16.245537 9.145056 -9.953228 -0.738187 -4.052585 -20.160842 9.518480 -0.707668 1.875865 -0.969885 -0.829290 0.765950 0.595340 -0.111480 
